<?xml version="1.0" standalone="no"?>
<!DOCTYPE svg PUBLIC "-//W3C//DTD SVG 20010904//EN"
 "http://www.w3.org/TR/2001/REC-SVG-20010904/DTD/svg10.dtd">
<svg version="1.0" xmlns="http://www.w3.org/2000/svg"
 width="900.000000pt" height="839.000000pt" viewBox="0 0 900.000000 839.000000"
 preserveAspectRatio="xMidYMid meet">
<metadata>
Created by potrace 1.15, written by Peter Selinger 2001-2017
</metadata>
<g transform="translate(0.000000,839.000000) scale(0.100000,-0.100000)"
fill="#000000" stroke="none">
<path d="M4977 7813 c-8 -21 -40 -92 -72 -158 -96 -202 -122 -257 -153 -325
-16 -36 -51 -111 -77 -168 -27 -56 -45 -105 -42 -108 19 -20 41 13 120 186 32
70 54 116 169 360 78 164 108 231 108 241 0 5 -9 9 -19 9 -12 0 -24 -13 -34
-37z"/>
<path d="M4037 7763 c-3 -5 0 -93 6 -196 10 -175 12 -187 30 -187 19 0 19 5
12 158 -4 87 -10 173 -14 192 -6 33 -24 49 -34 33z"/>
<path d="M5428 7598 c-75 -93 -288 -379 -288 -388 0 -23 30 -7 62 33 106 129
288 379 283 387 -11 17 -22 11 -57 -32z"/>
<path d="M4482 7611 c-7 -4 -19 -43 -28 -87 -16 -81 -26 -127 -63 -299 -36
-164 -36 -165 -17 -165 22 0 29 21 71 222 20 95 43 206 52 246 15 73 10 99
-15 83z"/>
<path d="M2734 7529 c-3 -6 18 -36 47 -67 30 -32 106 -111 169 -177 63 -66
155 -162 204 -213 82 -87 104 -102 113 -75 5 14 -499 543 -516 543 -5 0 -13
-5 -17 -11z"/>
<path d="M3745 7530 c-3 -5 3 -42 15 -82 56 -201 100 -371 100 -387 0 -9 6
-26 14 -37 11 -14 17 -16 26 -7 13 12 11 27 -38 213 -17 63 -40 153 -52 200
-26 101 -46 131 -65 100z"/>
<path d="M6410 7408 c-52 -33 -120 -76 -150 -94 -30 -19 -100 -63 -155 -98
-55 -36 -135 -86 -177 -111 -43 -26 -78 -51 -78 -55 0 -27 36 -11 182 81 90
57 239 150 331 208 92 58 168 111 168 116 0 23 -31 11 -121 -47z"/>
<path d="M4955 7313 c-43 -70 -93 -155 -112 -188 -19 -33 -40 -67 -47 -75 -7
-8 -29 -44 -49 -80 -50 -88 -60 -100 -88 -100 -14 0 -41 -11 -62 -25 -41 -29
-44 -27 -22 16 9 16 13 34 10 39 -15 24 -35 5 -64 -64 -23 -52 -47 -87 -84
-123 -68 -65 -128 -115 -133 -111 -4 5 17 118 47 255 12 57 20 106 16 109 -16
17 -36 -10 -47 -63 -6 -32 -18 -85 -25 -118 -8 -33 -22 -97 -31 -143 -17 -82
-18 -83 -66 -112 l-48 -30 0 28 c0 15 -5 70 -10 122 -5 52 -11 158 -15 235 -9
200 -23 383 -30 394 -3 6 -13 7 -21 4 -18 -7 -18 14 12 -453 9 -129 19 -263
23 -296 7 -62 7 -62 -23 -80 -17 -9 -46 -30 -65 -46 -40 -35 -35 -39 -115 92
-32 52 -71 114 -87 137 -16 23 -29 46 -29 51 0 16 -29 35 -45 28 -19 -7 -7
-31 86 -176 115 -178 114 -178 93 -201 -11 -12 -39 -32 -64 -46 -25 -14 -88
-54 -140 -88 -150 -98 -204 -130 -215 -127 -5 2 -44 10 -85 17 -41 8 -124 23
-185 35 -60 12 -146 27 -190 35 -44 8 -152 28 -240 44 -185 35 -185 35 -185
17 0 -14 75 -31 325 -76 66 -12 138 -25 160 -30 44 -10 377 -70 389 -70 4 0 0
-10 -8 -22 -14 -19 -26 -22 -113 -24 -113 -3 -222 15 -299 50 -53 25 -74 27
-259 25 -48 0 -192 15 -598 61 -103 12 -194 19 -202 16 -37 -14 -4 -24 133
-40 81 -9 183 -21 227 -26 44 -5 148 -17 230 -25 224 -23 235 -27 170 -58 -19
-9 -51 -31 -72 -49 -94 -82 -93 -81 -278 -94 -93 -7 -237 -17 -320 -23 -82 -6
-246 -18 -364 -25 -199 -14 -250 -23 -221 -41 12 -7 298 10 650 40 119 10 337
25 368 25 l32 0 -57 -58 c-56 -57 -60 -59 -133 -70 -41 -7 -106 -15 -145 -18
-76 -7 -113 -20 -98 -35 5 -5 55 -3 123 6 62 8 120 15 128 15 22 0 -74 -75
-142 -111 -34 -18 -83 -51 -111 -74 -50 -42 -52 -43 -369 -118 -175 -42 -321
-79 -324 -82 -14 -13 22 -22 56 -14 21 5 121 29 224 54 103 25 192 45 197 45
17 0 -57 -114 -96 -148 -44 -39 -295 -163 -366 -180 -99 -25 -279 -137 -250
-155 16 -10 113 13 162 38 29 14 84 33 124 41 40 9 88 27 108 41 21 13 65 31
99 39 69 16 167 70 252 138 31 25 59 46 62 46 6 0 109 50 209 102 17 9 43 19
57 23 l24 8 -26 -35 c-32 -42 -93 -176 -85 -185 4 -3 16 2 27 12 11 10 47 34
80 54 94 57 237 204 289 297 73 132 90 151 205 243 61 49 121 101 133 115 13
14 28 26 34 26 6 0 36 -22 67 -49 31 -26 65 -51 74 -54 10 -4 41 -38 70 -77
54 -75 72 -88 200 -139 40 -17 113 -50 161 -75 89 -45 188 -69 208 -49 10 10
4 15 -159 125 -54 37 -103 73 -109 80 -16 22 -41 101 -47 153 l-6 50 20 -32
c11 -18 27 -33 36 -33 47 0 234 153 269 219 23 46 134 140 208 177 65 33 67
33 67 13 0 -53 -26 -104 -77 -152 -55 -53 -60 -71 -15 -61 88 22 247 150 278
224 21 48 60 87 119 117 28 14 69 43 93 64 90 83 122 76 122 -28 0 -45 -7 -81
-25 -123 -37 -88 -34 -122 14 -161 47 -37 58 -62 65 -154 4 -52 2 -82 -11
-117 -9 -26 -14 -50 -10 -54 10 -10 70 32 95 66 32 43 36 83 18 172 -9 42 -16
103 -16 134 0 50 6 67 42 127 40 66 42 76 48 166 4 69 11 105 25 129 11 17 23
32 27 32 4 0 36 -42 72 -93 63 -90 92 -121 205 -215 35 -30 62 -65 85 -110 39
-77 55 -94 116 -121 79 -34 413 -80 397 -54 -4 6 -28 14 -54 18 -84 12 -168
43 -195 72 -34 37 -65 99 -83 170 -20 76 -20 75 20 59 19 -8 61 -22 95 -30 33
-9 79 -25 102 -37 31 -16 77 -25 173 -34 116 -11 136 -16 183 -44 95 -56 164
-112 191 -157 16 -26 43 -52 71 -67 41 -23 57 -25 195 -28 83 -1 186 1 230 5
44 3 125 10 180 14 97 8 159 26 160 47 0 6 -47 13 -108 17 -77 5 -135 16 -203
38 -52 16 -113 30 -137 30 -58 0 -112 17 -144 44 l-27 23 80 7 c139 12 164 17
164 34 0 12 -10 14 -57 8 -193 -21 -204 -21 -309 14 -54 18 -126 44 -159 57
-33 14 -71 30 -85 35 -21 9 7 17 172 52 193 41 218 49 205 63 -9 8 -99 -7
-312 -52 -150 -32 -175 -35 -215 -25 -53 13 -160 60 -160 69 0 4 114 42 253
85 504 156 510 158 474 172 -9 3 -58 -8 -109 -24 -51 -17 -147 -47 -213 -67
-135 -42 -261 -81 -382 -120 -80 -26 -85 -26 -130 -11 -27 9 -79 23 -118 31
-67 16 -255 110 -255 128 0 4 8 11 18 14 9 4 53 30 97 59 44 28 153 98 243
154 141 90 188 130 152 130 -8 0 -112 -64 -420 -260 -41 -26 -89 -55 -106 -65
l-31 -18 -119 62 c-65 34 -130 70 -143 80 l-24 18 29 41 c16 22 75 101 132
176 56 74 102 139 102 145 0 22 -30 10 -54 -21 -78 -100 -218 -285 -229 -302
-13 -19 -15 -19 -60 14 -45 32 -46 35 -32 56 8 12 34 55 58 96 24 40 95 156
156 258 62 102 113 189 114 194 1 6 -5 11 -14 13 -11 3 -39 -34 -94 -124z"/>
<path d="M5420 7047 c-287 -233 -357 -297 -322 -297 9 0 69 47 466 368 93 76
178 144 189 153 18 14 17 39 -1 39 -4 0 -153 -119 -332 -263z"/>
<path d="M3376 7292 c-3 -5 44 -87 104 -183 60 -96 126 -202 146 -237 37 -64
54 -79 74 -67 12 8 18 -3 -163 288 -117 189 -146 223 -161 199z"/>
<path d="M6215 6923 c-55 -24 -154 -69 -220 -97 -66 -29 -226 -100 -355 -158
-129 -57 -250 -110 -267 -118 -29 -11 -47 -40 -24 -40 13 0 121 46 421 180
151 67 316 140 365 162 179 79 205 92 202 102 -6 19 -23 15 -122 -31z"/>
<path d="M3310 6930 c-15 -9 1 -28 191 -225 53 -55 111 -117 129 -137 32 -38
75 -52 68 -24 -3 15 -345 380 -364 389 -6 3 -17 1 -24 -3z"/>
<path d="M2466 6881 c-7 -10 34 -35 189 -116 61 -31 152 -79 203 -107 78 -42
93 -47 98 -33 4 9 5 17 3 19 -7 6 -344 185 -370 196 -13 6 -40 20 -59 30 -39
21 -56 24 -64 11z"/>
<path d="M3180 6795 c0 -8 44 -49 97 -92 53 -43 121 -98 151 -123 30 -25 69
-56 87 -70 36 -28 203 -164 250 -204 33 -28 55 -33 55 -13 0 20 -37 52 -439
375 -45 37 -104 84 -129 105 -49 39 -72 46 -72 22z"/>
<path d="M1645 6761 c-7 -13 4 -19 83 -45 37 -12 162 -55 278 -94 116 -40 219
-72 228 -72 17 0 22 15 7 25 -16 9 -564 195 -577 195 -7 0 -15 -4 -19 -9z"/>
<path d="M2522 6668 c6 -16 469 -220 486 -213 28 10 5 25 -130 85 -79 34 -182
80 -229 101 -87 39 -134 49 -127 27z"/>
<path d="M2310 6528 c0 -8 110 -50 273 -105 149 -51 372 -126 494 -167 122
-42 229 -76 237 -76 9 0 16 6 16 13 0 7 -90 43 -227 90 -126 42 -347 117 -491
167 -145 49 -272 90 -283 90 -10 0 -19 -6 -19 -12z"/>
<path d="M3092 6420 c3 -11 97 -55 303 -144 61 -27 124 -54 142 -62 17 -8 38
-14 47 -14 29 0 16 25 -22 41 -20 9 -86 38 -147 64 -60 26 -149 65 -196 86
-84 38 -134 49 -127 29z"/>
<path d="M2090 6325 c0 -8 2 -15 4 -15 2 0 48 -9 102 -19 54 -11 149 -30 211
-42 106 -20 158 -20 137 1 -8 8 -412 90 -443 90 -6 0 -11 -7 -11 -15z"/>
<path d="M1075 6260 c-11 -18 5 -30 40 -30 18 0 93 -7 167 -15 73 -9 209 -25
301 -35 200 -24 217 -24 217 -6 0 15 12 13 -380 56 -151 16 -289 32 -307 35
-17 3 -34 1 -38 -5z"/>
<path d="M7292 5792 c-4 -139 -28 -278 -57 -328 -25 -43 -63 -74 -90 -74 -12
0 -15 -14 -15 -75 0 -68 2 -75 20 -75 26 0 26 -1 -12 -73 -46 -86 -122 -160
-186 -183 l-52 -19 0 -67 0 -68 30 0 c92 0 225 96 310 222 l40 60 -1 -53 c-2
-107 -14 -167 -39 -195 -33 -35 -112 -74 -150 -74 l-30 0 0 -76 0 -76 46 7
c26 3 54 9 62 13 12 4 10 -2 -6 -25 -25 -35 -73 -68 -114 -78 -27 -7 -28 -9
-28 -80 l0 -72 45 8 c25 5 55 13 66 20 33 17 32 5 -4 -47 -43 -62 -117 -119
-176 -134 -25 -7 -54 -14 -63 -17 -15 -4 -18 -16 -18 -75 l0 -71 57 7 58 7
-35 -37 c-41 -42 -118 -84 -155 -84 -25 0 -25 -1 -25 -76 l0 -77 47 7 c68 9
159 55 222 111 55 50 151 178 151 202 0 7 5 13 10 13 14 0 13 -6 -15 -113 -37
-145 -72 -224 -122 -276 -44 -45 -44 -46 -41 -111 3 -63 4 -65 28 -61 37 5 81
30 113 64 15 16 30 28 32 25 2 -2 -14 -58 -36 -124 -65 -193 -139 -312 -216
-346 l-43 -19 0 -71 0 -71 41 7 c22 4 58 15 78 26 75 38 178 173 231 302 8 20
17 39 20 41 3 3 4 -145 2 -329 l-3 -334 45 -2 c25 -1 58 -2 74 -2 l27 -1 5
410 c5 395 6 409 22 379 44 -80 152 -158 228 -166 l35 -3 3 71 3 71 -30 6
c-47 10 -107 75 -146 160 -19 41 -35 78 -35 81 0 3 27 -14 60 -38 110 -81 238
-130 365 -138 l50 -3 0 69 0 70 -79 13 c-127 21 -215 69 -316 172 -107 108
-150 187 -150 272 l0 59 72 -76 c107 -113 230 -176 369 -191 l60 -6 -3 74 -3
74 -60 7 c-124 16 -262 115 -333 240 -41 71 -40 85 1 54 39 -30 108 -56 148
-56 l29 0 0 70 c0 47 -4 70 -12 70 -32 0 -101 46 -132 89 -47 63 -91 178 -106
272 -15 94 -10 117 15 65 44 -93 183 -206 253 -206 21 0 22 4 22 75 0 62 -3
75 -16 75 -65 0 -191 202 -219 352 l-7 36 43 -14 c61 -22 69 -15 69 58 0 60
-2 64 -36 92 -70 56 -121 204 -131 379 l-6 107 -76 0 -76 0 -3 -98z"/>
<path d="M5000 5191 c-58 -9 -83 -23 -117 -67 -37 -50 -39 -131 -4 -168 32
-34 78 -42 126 -22 20 9 46 16 56 16 16 0 19 8 19 45 0 49 -15 59 -30 21 -9
-26 -55 -66 -76 -66 -30 0 -44 31 -44 101 0 61 3 73 25 94 30 31 40 31 71 0
35 -35 44 -31 44 15 0 26 -4 40 -12 39 -7 -1 -33 -5 -58 -8z"/>
<path d="M4742 5130 c-41 -9 -51 -18 -33 -29 19 -12 28 -185 11 -206 -7 -9
-11 -18 -8 -20 10 -10 108 19 108 31 0 8 -6 11 -15 8 -13 -5 -15 10 -15 100 0
64 4 106 10 106 6 0 10 5 10 10 0 11 -20 11 -68 0z"/>
<path d="M4618 5103 c-21 -5 -24 -19 -6 -25 9 -3 4 -24 -19 -72 l-31 -68 -7
44 c-3 24 -9 51 -11 61 -4 11 0 17 10 17 9 0 16 7 16 15 0 15 -20 14 -89 -5
-27 -7 -41 -30 -18 -30 10 0 19 -30 33 -107 10 -58 24 -108 30 -110 6 -2 37
56 70 128 32 72 65 134 72 136 6 3 12 9 12 14 0 9 -31 10 -62 2z"/>
<path d="M4353 5043 c-13 -2 -23 -11 -23 -19 0 -11 6 -13 20 -9 19 6 20 2 20
-84 0 -85 -1 -91 -26 -110 -30 -24 -54 -27 -72 -9 -17 17 -16 185 1 191 6 2 9
8 5 12 -11 12 -118 -15 -118 -30 0 -8 6 -12 14 -9 11 4 15 -13 17 -86 3 -77 7
-94 23 -106 42 -30 142 -9 166 35 5 11 10 63 10 115 0 79 3 96 15 96 8 0 15 5
15 10 0 10 -25 11 -67 3z"/>
<path d="M1977 4973 c-4 -3 -7 -34 -7 -68 0 -181 -79 -408 -150 -430 -19 -6
-21 -14 -18 -78 l3 -72 30 3 c17 2 41 10 53 19 13 8 25 13 27 11 7 -7 -53
-176 -85 -241 -35 -71 -100 -144 -137 -153 -21 -6 -23 -11 -23 -80 0 -41 4
-74 8 -74 5 0 31 7 59 15 64 19 140 85 189 166 21 33 39 57 42 54 8 -8 -18
-153 -39 -211 -42 -124 -104 -204 -175 -229 l-39 -13 -3 -71 c-3 -68 -2 -71
20 -71 43 0 96 20 148 56 29 20 51 32 49 27 -76 -171 -235 -305 -382 -320
l-57 -6 0 -74 0 -74 58 7 c163 20 321 111 414 238 l28 39 0 -63 c0 -52 -6 -73
-37 -134 -84 -161 -263 -292 -435 -318 l-78 -12 0 -68 0 -68 48 0 c110 0 292
70 379 144 22 20 44 36 47 36 7 0 -17 -68 -39 -110 -26 -51 -94 -118 -131
-130 l-34 -12 0 -69 0 -69 33 0 c69 0 160 64 234 165 l22 30 1 -407 0 -408 76
0 77 0 -5 335 c-3 185 -4 334 -2 333 1 -2 26 -49 54 -106 80 -159 172 -246
283 -267 l37 -7 0 76 c0 70 -2 76 -20 76 -31 0 -117 86 -157 157 -35 63 -113
273 -113 305 0 12 8 9 33 -14 35 -34 85 -58 117 -58 18 0 20 6 20 65 0 63 -1
66 -44 108 -31 32 -52 66 -75 125 -33 87 -61 191 -61 231 0 21 5 17 31 -25
100 -158 216 -244 362 -270 l37 -6 0 76 c0 73 -1 76 -23 76 -37 0 -119 46
-162 90 l-40 41 30 -7 c17 -5 44 -8 60 -9 l30 0 0 70 c0 62 -2 70 -20 73 -97
17 -169 61 -225 140 -22 30 -39 57 -37 58 1 2 21 -3 42 -11 22 -8 52 -14 68
-15 27 0 27 0 27 69 l0 68 -43 17 c-24 9 -61 34 -83 57 l-39 40 45 -7 c79 -13
75 -16 78 64 l3 72 -29 0 c-38 0 -126 45 -156 80 -19 24 -26 45 -31 107 -3 43
-8 93 -11 111 -7 45 7 40 31 -11 27 -57 159 -188 215 -214 25 -12 67 -24 93
-28 l48 -7 -3 73 -3 73 -33 7 c-70 14 -158 100 -211 206 -26 51 -26 65 -3 61
15 -3 17 7 20 70 2 59 0 72 -12 72 -21 0 -84 57 -102 93 -20 38 -40 162 -49
305 l-8 112 -67 0 c-36 0 -70 -3 -73 -7z"/>
<path d="M6025 4899 c-55 -5 -178 -21 -274 -35 -226 -33 -286 -62 -326 -156
-13 -33 -15 -143 -15 -891 l0 -854 23 -34 c15 -23 37 -38 66 -48 38 -12 62
-11 229 13 103 14 251 33 330 40 167 17 214 37 257 110 l25 43 -2 284 c-3 275
-4 284 -23 287 -21 3 -154 -81 -206 -129 l-29 -27 0 -159 c0 -117 -4 -164 -13
-177 -11 -15 -44 -22 -162 -37 -82 -10 -161 -21 -176 -24 -17 -4 -32 -1 -43
10 -14 15 -16 87 -16 755 0 688 1 739 18 759 14 18 41 24 186 41 223 28 206
44 206 -202 0 -165 2 -189 16 -195 21 -8 57 12 159 85 l80 57 3 160 c3 191 0
215 -39 259 -56 65 -117 79 -274 65z"/>
<path d="M4880 4683 c-146 -36 -359 -89 -474 -117 -144 -35 -212 -56 -220 -68
-8 -14 0 -28 47 -77 l57 -60 0 -810 0 -810 -56 -82 c-57 -84 -63 -115 -21
-106 12 3 228 55 480 117 300 74 467 120 483 132 l24 19 0 295 c0 283 -1 294
-19 294 -29 0 -204 -141 -228 -183 -8 -14 -12 -66 -13 -138 0 -80 -4 -121 -14
-134 -9 -12 -64 -31 -177 -60 -90 -23 -170 -40 -176 -38 -10 4 -13 54 -12 211
l0 207 155 130 c85 72 175 148 199 171 l45 41 0 136 c0 110 -3 137 -14 137 -7
0 -95 -70 -195 -155 -99 -85 -183 -155 -186 -155 -3 0 -5 179 -5 399 0 310 3
401 13 409 7 6 86 29 176 52 126 31 166 38 177 29 11 -9 14 -45 14 -161 0
-201 4 -203 171 -49 l89 82 0 195 0 194 -26 10 c-14 6 -26 10 -27 9 -1 0 -121
-30 -267 -66z"/>
<path d="M3770 4430 c-125 -25 -420 -59 -590 -68 -160 -8 -166 -14 -100 -93
75 -90 70 -18 70 -892 0 -879 6 -806 -72 -899 -65 -77 -57 -84 97 -80 72 2
177 9 235 15 127 14 133 23 65 100 -26 28 -51 62 -56 75 -5 13 -9 95 -9 182 0
136 2 160 18 177 9 11 98 86 197 166 231 186 381 321 420 376 l30 43 0 406 c0
443 0 443 -58 486 -37 28 -127 30 -247 6z m40 -246 c6 -14 10 -146 10 -301 0
-346 10 -320 -173 -469 -200 -164 -200 -164 -219 -164 -17 0 -18 26 -18 443 0
339 3 447 13 460 9 13 44 21 132 32 66 9 125 17 130 20 6 2 34 4 63 4 48 1 53
-1 62 -25z"/>
<path d="M4714 2340 c-49 -10 -178 -60 -254 -98 -43 -22 -59 -37 -78 -75 -14
-26 -23 -50 -20 -53 3 -3 28 -10 54 -17 69 -17 72 -44 7 -76 -41 -21 -67 -25
-171 -29 -104 -4 -124 -7 -132 -22 -11 -21 -18 -24 -130 -56 -102 -30 -166
-64 -214 -113 l-35 -36 9 -265 c11 -302 27 -547 40 -605 12 -55 67 -101 198
-168 256 -131 447 -155 482 -61 6 14 10 139 11 277 0 139 4 299 8 357 l8 104
48 42 48 43 1 85 c0 88 9 104 21 36 12 -72 -3 -121 -51 -166 -41 -39 -43 -44
-53 -124 -6 -47 -11 -185 -11 -308 0 -253 -4 -242 82 -222 95 22 268 81 268
91 0 5 -11 31 -24 58 -43 85 -59 165 -59 301 0 110 3 134 27 205 36 104 76
179 127 235 43 48 42 41 -4 -27 -74 -111 -109 -234 -108 -387 0 -176 47 -313
126 -368 47 -32 356 -180 363 -173 3 3 -10 33 -28 67 -59 110 -75 258 -45 414
16 83 55 196 89 254 95 164 260 296 386 308 28 2 53 8 55 13 3 4 -41 23 -97
41 l-103 33 -26 66 c-46 115 -47 125 -3 163 35 30 37 35 27 59 -30 65 -185
131 -411 172 -148 28 -360 40 -428 25z m814 -182 c22 -22 13 -46 -20 -59 -20
-7 -100 -14 -195 -17 -138 -3 -163 -2 -163 10 0 32 61 61 145 71 78 10 222 6
233 -5z m-1093 -428 c3 -5 15 -10 25 -10 31 0 67 -21 81 -47 13 -23 11 -27
-19 -54 -40 -36 -96 -39 -176 -9 -107 41 -139 91 -68 109 82 21 148 26 157 11z"/>
<path d="M4252 2080 c-29 -4 -66 -13 -83 -20 -24 -10 -27 -15 -17 -27 16 -20
217 -14 268 8 34 15 34 16 14 27 -30 16 -119 22 -182 12z"/>
<path d="M5688 1696 c-134 -36 -267 -168 -338 -335 -45 -104 -60 -175 -60
-277 0 -173 33 -266 128 -358 63 -62 79 -66 35 -9 -80 104 -107 186 -107 333
1 162 42 290 140 427 78 110 209 195 320 209 30 3 51 10 48 15 -8 13 -111 10
-166 -5z"/>
<path d="M5719 1606 c-59 -24 -123 -65 -115 -73 2 -3 31 -5 63 -6 133 -4 195
-126 160 -314 -28 -148 -94 -251 -192 -299 -68 -33 -147 -31 -196 5 -37 28
-44 23 -30 -22 20 -59 67 -123 104 -140 44 -21 119 -22 178 -2 71 25 171 107
222 182 64 95 89 175 95 302 7 155 -21 254 -92 329 -63 67 -106 76 -197 38z"/>
<path d="M5950 1602 c0 -5 8 -16 18 -25 47 -42 92 -182 92 -282 0 -69 -19
-164 -49 -249 -64 -182 -209 -323 -351 -341 -66 -9 -80 -16 -50 -25 56 -18 93
-11 154 29 34 21 79 45 100 52 78 28 184 185 223 330 22 86 22 224 -1 318 -14
55 -30 88 -65 134 -43 57 -71 80 -71 59z"/>
<path d="M5575 1470 c-79 -52 -148 -203 -160 -353 -7 -86 2 -124 37 -150 35
-26 79 -15 131 31 80 73 120 173 121 302 0 89 -16 142 -51 170 -32 25 -40 25
-78 0z"/>
</g>
</svg>
